<?xml version="1.0" encoding="UTF-8"?>
<svg version="1.1" xmlns="http://www.w3.org/2000/svg" width="512" height="512">
<path d="M0 0 C2.39175314 2.18202423 4.74205618 4.40564368 7.08544922 6.6394043 C7.88466797 7.39737305 8.68388672 8.1553418 9.50732422 8.9362793 C15.19079859 14.46296816 20.17968145 20.41988855 25.08544922 26.6394043 C25.86662109 27.60362305 26.64779297 28.5678418 27.45263672 29.5612793 C67.71707309 80.24558579 84.54432165 145.50245039 77.48339844 209.45678711 C70.65529506 264.06485807 45.75361659 312.12249251 8.08544922 351.6394043 C7.32748047 352.43862305 6.56951172 353.2378418 5.78857422 354.0612793 C0.26188535 359.74475366 -5.69503503 364.73363653 -11.91455078 369.6394043 C-12.87876953 370.42057617 -13.84298828 371.20174805 -14.83642578 372.0065918 C-65.52073227 412.27102817 -130.77759687 429.09827672 -194.73193359 422.03735352 C-243.49859459 415.93965043 -289.27911839 395.36231478 -325.91455078 362.6394043 C-326.79240234 361.87112305 -327.67025391 361.1028418 -328.57470703 360.3112793 C-338.23159671 351.77381269 -346.94672339 342.77404189 -354.91455078 332.6394043 C-355.69443359 331.67647461 -356.47431641 330.71354492 -357.27783203 329.72143555 C-396.79111712 279.99897631 -414.12945191 215.61135728 -407.66845703 152.70581055 C-404.74578008 127.55270187 -397.90262362 103.83642827 -387.91455078 80.6394043 C-387.59760254 79.90093262 -387.2806543 79.16246094 -386.95410156 78.40161133 C-372.08572673 44.23286814 -347.11487036 12.67174193 -317.91455078 -10.3605957 C-316.46822266 -11.53235352 -316.46822266 -11.53235352 -314.99267578 -12.7277832 C-239.45701315 -72.73454057 -130.78438688 -80.99563691 0 0 Z M-311.84423828 40.37768555 C-315.74189707 44.63569392 -319.33722475 49.11175646 -322.91455078 53.6394043 C-323.70732422 54.60362305 -324.50009766 55.5678418 -325.31689453 56.5612793 C-346.13126106 82.47237065 -359.47650844 114.99633272 -364.91455078 147.6394043 C-365.13884766 148.92588867 -365.36314453 150.21237305 -365.59423828 151.5378418 C-373.0876424 202.9651769 -359.18829043 257.33669829 -328.17431641 298.97583008 C-295.93721463 341.54629742 -249.87820198 370.81613603 -196.91455078 379.6394043 C-194.98482422 379.97584961 -194.98482422 379.97584961 -193.01611328 380.3190918 C-141.58877818 387.81249591 -87.21725679 373.91314394 -45.578125 342.89916992 C-3.00765766 310.66206815 26.26218095 264.6030555 35.08544922 211.6394043 C35.42189453 209.70967773 35.42189453 209.70967773 35.76513672 207.7409668 C43.25854084 156.31363169 29.35918886 101.9421103 -1.65478516 60.30297852 C-33.89188693 17.73251117 -79.95089958 -11.53732744 -132.91455078 -20.3605957 C-134.20103516 -20.58489258 -135.48751953 -20.80918945 -136.81298828 -21.0402832 C-201.46821178 -30.46110419 -266.64574625 -6.07168726 -311.84423828 40.37768555 Z " fill="#000000" transform="translate(420.91455078125,76.360595703125)"/>
<path d="M0 0 C2.12398713 -0.00217399 4.24744314 -0.0203367 6.37133789 -0.03930664 C14.56933078 -0.07195367 22.4091769 0.49443744 30.45922852 2.18530273 C30.45922852 5.87519447 29.54699831 6.67699663 27.33422852 9.56030273 C15.0656282 26.64693637 12.54093656 45.22158364 14.85766602 65.70874023 C18.53235323 83.12771208 29.82210521 99.57586117 44.61938477 109.25170898 C52.20517798 113.90485568 59.76864015 117.06943734 68.45922852 119.18530273 C69.21333008 119.37608398 69.96743164 119.56686523 70.74438477 119.76342773 C90.0882841 122.76938619 109.41423251 118.51561405 125.38110352 107.09545898 C127.79404044 105.17867329 130.13195485 103.20449366 132.45922852 101.18530273 C134.12109568 99.84599206 135.78655611 98.51109404 137.45922852 97.18530273 C146.06825627 121.67368763 147.93416811 149.91982414 141.45922852 175.18530273 C141.23372314 176.15886719 141.23372314 176.15886719 141.00366211 177.15209961 C136.60248203 196.03649846 127.64825618 214.13844855 115.45922852 229.18530273 C115.02642578 229.73331543 114.59362305 230.28132812 114.14770508 230.84594727 C90.35587498 260.86814339 56.4078814 279.30452672 18.45922852 284.18530273 C0.58647936 285.11604136 -17.19081034 284.91410409 -34.54077148 280.18530273 C-35.29390625 279.98694824 -36.04704102 279.78859375 -36.82299805 279.58422852 C-53.97371383 274.91991659 -70.80001679 266.4662927 -84.54077148 255.18530273 C-85.04479492 254.78375977 -85.54881836 254.3822168 -86.06811523 253.96850586 C-116.09495547 230.02624117 -134.67161064 196.30678486 -139.54077148 158.18530273 C-139.77914401 153.06318282 -139.78646195 147.9374036 -139.79077148 142.81030273 C-139.79144623 142.09188202 -139.79212097 141.3734613 -139.79281616 140.63327026 C-139.77669723 129.84006217 -139.25652449 119.68251945 -136.54077148 109.18530273 C-136.39043457 108.53770996 -136.24009766 107.89011719 -136.08520508 107.22290039 C-131.68462207 88.33649378 -122.73104198 70.23369114 -110.54077148 55.18530273 C-110.10796875 54.63729004 -109.67516602 54.08927734 -109.22924805 53.5246582 C-82.70180838 20.05047849 -42.84250521 -0.00489573 0 0 Z " fill="#000000" transform="translate(253.540771484375,113.814697265625)"/>
</svg>
